<?xml version="1.0" encoding="utf-8"?>
<!DOCTYPE svg PUBLIC "-//W3C//DTD SVG 1.0//EN" "http://www.w3.org/TR/2001/REC-SVG-20010904/DTD/svg10.dtd">
<svg version="1.0" xmlns="http://www.w3.org/2000/svg" width="1000px" height="1000px" viewBox="0 0 1000 1000" preserveAspectRatio="xMidYMid meet">
 <g fill="#0160a7">
  <path d="M354 823.8 c-6.6 -2.2 -13.9 -11 -20.9 -25.2 -6.8 -13.8 -19.9 -43.8 -28.6 -65.1 -8.7 -21.5 -12.5 -30.5 -17.6 -41.7 -4.9 -10.6 -8.3 -19.8 -7.7 -20.2 0.2 -0.1 6.8 0.2 14.8 0.8 24.4 1.6 46.7 -1.7 61.8 -9.2 14.2 -7.1 32.9 -22 41.1 -32.8 10.5 -14 14.2 -24.7 15.6 -45.9 1.6 -24.1 -4 -45.8 -15.6 -60.6 -13.3 -16.7 -29.7 -27.4 -55 -35.6 -13.9 -4.6 -21.7 -8 -29.9 -13.1 -10.5 -6.5 -15 -12.1 -15 -18.8 0 -3.2 0.7 -4.5 4.8 -8.3 6 -5.8 12.8 -8.1 24.1 -8.1 11.5 0 20.5 2.3 31.8 8.2 l9.8 5.1 40.7 0.5 40.6 0.4 0.5 5.2 c0.2 2.8 0.5 49.6 0.6 104.1 0.1 66.9 0.5 99.3 1.2 100 1.3 1.3 73.1 2 77.9 0.8 l3.5 -0.9 0.5 -104.5 0.5 -104.4 17.5 -0.2 c9.6 -0.1 21 -0.5 25.3 -0.9 6.2 -0.5 7.7 -0.4 7.7 0.7 0 0.8 -1.6 7 -3.5 13.8 -15.7 56 -9 120.7 16.2 158.2 11.1 16.4 35 34.3 54.6 40.8 23.5 7.9 55.3 9.9 86.1 5.6 9.5 -1.3 20.6 -1 20.6 0.5 0 2.3 -18.4 18 -36.2 30.9 -40.7 29.4 -48.1 34.1 -79.9 50.5 -50.8 26.1 -95 42.4 -141.4 52.1 -23.1 4.8 -36.1 7.4 -45.5 8.9 -38.3 6.3 -93.3 10.9 -101 8.4z"/>
  <path d="M790.2 641.2 c-0.8 -0.6 -1.2 -9.5 -1.4 -31.4 -0.2 -16.9 -0.6 -30.9 -0.9 -31.2 -0.3 -0.4 -2.7 0.3 -5.3 1.4 -2.7 1.1 -5.3 1.7 -5.8 1.3 -0.6 -0.3 -0.8 -0.1 -0.5 0.5 0.7 1 -10.6 8.3 -21.1 13.6 -22.7 11.5 -44.7 11.5 -61.9 0.1 -8.6 -5.7 -20 -17.1 -22.8 -22.9 -3.4 -6.9 -8.1 -25.8 -10.1 -40.7 -2.7 -19.5 0.4 -39.4 8.1 -53.2 6.1 -10.7 26.5 -27.7 37.8 -31.3 6.8 -2.2 30.1 -3.1 37.6 -1.4 6.9 1.5 16.8 6.2 20.5 9.7 3.8 3.5 6.3 9.4 16.3 38.8 15.8 46.4 20.3 60.5 22.8 70.8 1.4 5.6 4 15.4 5.7 21.7 4.4 15.5 4.4 23.1 0.1 32 -1.7 3.6 -4.3 8.3 -5.9 10.6 -4 5.6 -11.7 12.4 -13.2 11.6z"/>
  <path d="M290.7 610.3 c-11.1 -1.9 -28.8 -12.8 -41.5 -25.6 -9.1 -9.2 -9.9 -10.7 -19.4 -37.2 -2.7 -7.7 -6.1 -16.9 -7.5 -20.5 -1.4 -3.6 -3.4 -8.9 -4.4 -11.7 -1.7 -5.1 -1.7 -5.3 0.1 -6.3 4.5 -2.4 6.8 -1.2 15.3 7.4 4.5 4.6 11.1 10.3 14.7 12.6 6.9 4.5 26.9 14.4 41.2 20.5 4.8 2.1 8.6 4 8.4 4.4 -0.2 0.3 0.6 0.7 1.7 0.8 3.1 0.2 16 7.5 23.9 13.3 7.5 5.7 9.8 9.6 9.8 16.7 -0.1 13.8 -13.9 25.2 -31.5 25.8 -4.4 0.2 -9.3 0.1 -10.8 -0.2z"/>
  <path d="M203.2 470.3 c-4.3 -13.8 -4.6 -15.2 -10.7 -45 -6.4 -31 -7 -40.5 -3.3 -48.1 1.4 -3 9.9 -12.3 25.7 -28.2 32.9 -33 38.8 -38.3 63.1 -56.6 37.9 -28.4 45.9 -33.8 64.5 -43.4 5.5 -2.9 12.9 -6.9 16.5 -9 16.5 -9.6 60.8 -29.6 72.5 -32.7 1.1 -0.3 2.5 -0.9 3 -1.3 0.6 -0.4 5.5 -2.1 11 -3.8 46.9 -14.3 94.6 -23.9 137.5 -27.6 48.1 -4.2 55.7 -4.4 61.6 -1.7 8.8 4 17.5 15.6 27.1 35.9 7.4 15.8 19.7 43.8 21.2 48.5 0.7 2 5.1 13.1 9.7 24.5 14.9 36.2 34.9 87.3 36 91.6 l0.7 2.9 -5.9 -0.7 c-17.1 -2 -39.7 -2.6 -107.9 -2.6 -50.6 0 -77.4 0.4 -82.3 1.2 -5.6 0.8 -7.6 0.8 -8.5 -0.1 -0.9 -0.9 -1.3 -12.1 -1.7 -41.4 l-0.5 -40.2 -41 0 -41 0 -0.5 40.5 c-0.3 22.3 -0.7 40.7 -0.8 40.8 -0.1 0.2 -30.5 0.2 -67.4 0.1 -50.4 -0.2 -69.3 0 -75.3 0.9 -35 5.5 -55.9 15.6 -74.4 35.7 -13.7 15.1 -18.6 27.9 -19.5 50.8 -0.6 15.2 -1.4 18.7 -4.1 18.7 -1.9 0 -2.6 -1.2 -5.3 -9.7z"/>
 </g>
 <g fill="#00538c">
  <path d="M353.5 822.9 c-0.4 -0.6 -0.5 -1.3 -0.2 -1.6 0.7 -0.7 2.7 0.6 2.7 1.8 0 1.2 -1.7 1.2 -2.5 -0.2z"/>
  <path d="M393 822 c0 -0.5 1.1 -1 2.5 -1 1.4 0 2.5 0.5 2.5 1 0 0.6 -1.1 1 -2.5 1 -1.4 0 -2.5 -0.4 -2.5 -1z"/>
  <path d="M399 821 c0 -1.5 1.3 -1.8 11.3 -2.4 6.8 -0.4 8.7 -0.2 8.7 0.8 0 0.9 -2.2 1.5 -6.7 1.9 -9.7 1 -13.3 0.9 -13.3 -0.3z"/>
  <path d="M423.2 819 c0.6 -2 8.5 -4 16.7 -4.3 11.1 -0.3 10.4 1.8 -1.1 3.2 -5.1 0.6 -10.8 1.4 -12.7 1.8 -2.5 0.4 -3.2 0.2 -2.9 -0.7z"/>
  <path d="M450.3 814.8 c0.2 -0.7 1.2 -1.3 2.2 -1.3 1 0 2 0.6 2.3 1.3 0.2 0.7 -0.6 1.2 -2.3 1.2 -1.7 0 -2.5 -0.5 -2.2 -1.2z"/>
  <path d="M456 814.1 c0 -1.7 3.2 -2.9 8.9 -3.3 6.7 -0.4 8.2 1.7 1.9 2.7 -2.4 0.3 -5.8 0.9 -7.5 1.2 -2 0.3 -3.3 0.1 -3.3 -0.6z"/>
  <path d="M472.2 810.8 c0.7 -2 4.8 -2.3 4.8 -0.4 0 1.1 -0.9 1.6 -2.6 1.6 -1.6 0 -2.4 -0.5 -2.2 -1.2z"/>
  <path d="M478 810.3 c0 -1.2 6 -3.3 9.3 -3.3 3.6 0 3.4 1.7 -0.3 2.4 -1.6 0.3 -4.3 0.9 -6 1.2 -1.6 0.3 -3 0.2 -3 -0.3z"/>
  <path d="M493 807 c0 -0.5 0.7 -1 1.5 -1 0.8 0 1.5 0.5 1.5 1 0 0.6 -0.7 1 -1.5 1 -0.8 0 -1.5 -0.4 -1.5 -1z"/>
  <path d="M501.2 804.9 c0.5 -1.6 6.2 -2.9 7.9 -1.8 1.8 1.1 1.1 1.6 -4 2.4 -3.4 0.6 -4.2 0.4 -3.9 -0.6z"/>
  <path d="M511 803.1 c0 -1.2 0.8 -1.6 4.3 -2.5 3.4 -0.8 3.9 1.9 0.5 2.8 -3.3 0.8 -4.8 0.7 -4.8 -0.3z"/>
  <path d="M520 800.6 c0 -1.2 2.8 -2.5 5.3 -2.6 1.8 0 0.5 2.8 -1.5 3.4 -3.3 0.8 -3.8 0.8 -3.8 -0.8z"/>
  <path d="M527 799.1 c0 -1.6 3.4 -3.1 5 -2.1 1.8 1.1 1.3 1.6 -2.3 2.5 -1.7 0.5 -2.7 0.3 -2.7 -0.4z"/>
  <path d="M534 797.1 c0 -1.2 4.8 -2.7 5.7 -1.7 0.9 0.8 0.2 1.3 -3 2.1 -1.7 0.5 -2.7 0.3 -2.7 -0.4z"/>
  <path d="M553 790.5 c0 -0.9 0.6 -1.2 1.5 -0.9 0.8 0.4 1.5 1 1.5 1.5 0 0.5 -0.7 0.9 -1.5 0.9 -0.8 0 -1.5 -0.7 -1.5 -1.5z"/>
  <path d="M328.1 788.4 c-1.2 -2.7 -1.1 -2.8 0.4 -1.2 1 0.9 1.6 2.1 1.3 2.8 -0.2 0.7 -1 -0.1 -1.7 -1.6z"/>
  <path d="M559 789.1 c0 -0.5 0.7 -1.4 1.5 -2.1 1.2 -1 1.9 -1 2.8 -0.1 0.9 0.9 0.9 1.4 -0.3 2.1 -1.9 1.2 -4 1.3 -4 0.1z"/>
  <path d="M324.2 779.8 c-1 -3 -1 -3.1 0.3 -1.4 1.3 1.7 2.1 4.6 1.2 4.6 -0.1 0 -0.8 -1.5 -1.5 -3.2z"/>
  <path d="M584.5 779 c-0.3 -0.5 -0.1 -1 0.6 -1 0.7 0 3.5 -1.1 6.3 -2.4 8.5 -4 16.6 -6.9 17.3 -6.2 0.9 0.9 0.8 1 -11 6 -11.6 4.9 -12.3 5.1 -13.2 3.6z"/>
  <path d="M320.8 772.5 c-0.3 -1.1 -0.9 -2.9 -1.3 -4 -0.3 -1.1 0.1 -0.7 1 0.8 0.9 1.6 1.5 3.3 1.2 4 -0.2 0.6 -0.6 0.3 -0.9 -0.8z"/>
  <path d="M316.2 761.5 c-1.7 -3.7 -1.4 -4.5 0.4 -1.2 0.9 1.6 1.4 3.1 1.1 3.3 -0.2 0.2 -0.9 -0.7 -1.5 -2.1z"/>
  <path d="M625.5 761.1 c-0.6 -1.1 3.3 -2.6 4.3 -1.6 0.4 0.3 0 1 -0.8 1.5 -1.9 1.2 -2.7 1.2 -3.5 0.1z"/>
  <path d="M735.5 692 c-0.3 -0.6 0.1 -1.3 1 -1.6 1.9 -0.8 3 0 2 1.5 -0.8 1.4 -2.2 1.4 -3 0.1z"/>
  <path d="M280.2 676 c-0.7 -2.4 -1.1 -4.4 -0.9 -4.6 0.2 -0.3 1.5 0 2.8 0.5 1.3 0.5 1.9 1 1.2 1 -0.6 0.1 -1.3 1.7 -1.5 3.7 l-0.3 3.6 -1.3 -4.2z"/>
  <path d="M750.2 679.3 c-0.7 -0.3 -1.7 -1.6 -2.2 -2.9 -1.2 -3.1 -5.2 -4 -11.4 -2.4 -2.8 0.7 -8.2 1.4 -12.1 1.5 -3.8 0.1 -11.5 0.5 -17 0.9 -6.9 0.5 -11.7 0.3 -15.4 -0.6 -5 -1.2 -4.1 -1.3 13.5 -1.4 24 0 40.3 -2.2 59.8 -8.1 1 -0.3 -0.6 1.7 -3.7 4.5 -4.2 3.9 -6.1 4.9 -7.9 4.5 -1.8 -0.4 -2 -0.3 -0.8 0.6 1.3 0.9 1.3 1.2 0 2.4 -0.8 0.8 -2.1 1.2 -2.8 1z"/>
  <path d="M678.3 673.3 c0.9 -0.2 2.5 -0.2 3.5 0 0.9 0.3 0.1 0.5 -1.8 0.5 -1.9 0 -2.7 -0.2 -1.7 -0.5z"/>
  <path d="M288.3 672.3 c0.9 -0.2 2.5 -0.2 3.5 0 0.9 0.3 0.1 0.5 -1.8 0.5 -1.9 0 -2.7 -0.2 -1.7 -0.5z"/>
  <path d="M460.7 666.9 c-8 -1.1 -11.2 -3.2 -3.7 -2.5 3 0.3 19.5 0.6 36.5 0.7 22.8 0 30.3 0.3 28.5 1.1 -3 1.3 -52.9 1.8 -61.3 0.7z"/>
  <path d="M648.5 667 c-1.3 -0.5 -1.4 -0.9 -0.5 -0.9 0.8 0 2.4 0.4 3.5 0.9 1.3 0.5 1.4 0.9 0.5 0.9 -0.8 0 -2.4 -0.4 -3.5 -0.9z"/>
  <path d="M533 557.7 c0 -55.8 0.3 -102.2 0.6 -103.1 0.5 -1.4 3.7 -1.6 25.5 -1.6 21.5 0 24.9 0.2 24.9 1.5 0 1.2 -0.4 1.3 -1.8 0.4 -1.4 -0.9 -2.6 -0.7 -5.3 0.7 -3 1.7 -5.7 1.9 -22.4 1.9 l-19 0 -0.5 100.2 c-0.3 55.1 -0.8 100.5 -1.2 100.9 -0.5 0.4 -0.8 -45 -0.8 -100.9z"/>
  <path d="M789.1 640.5 c0 -2.7 0.3 -4.4 0.6 -3.7 0.2 0.6 1.3 1.2 2.4 1.2 2.5 0 2.4 0.9 -0.6 4.5 l-2.5 3 0.1 -5z"/>
  <path d="M600.2 633.7 c-3.2 -3.2 -3.9 -4.7 -2.4 -4.7 1 0 7.5 8 6.5 8 -0.5 0 -2.3 -1.5 -4.1 -3.3z"/>
  <path d="M789.3 609.5 c0 -3.3 0.2 -4.5 0.4 -2.7 0.2 1.8 0.2 4.5 0 6 -0.2 1.5 -0.4 0 -0.4 -3.3z"/>
  <path d="M291 610.3 c-3.7 -0.6 -15 -5 -18.7 -7.3 -5.7 -3.4 -3.6 -4 3 -0.8 3.4 1.7 8 3.3 10.2 3.6 2.2 0.2 4.6 0.9 5.3 1.5 0.7 0.5 3.3 0.7 6.2 0.3 4.7 -0.6 9 0.6 9 2.6 0 0.8 -10.5 0.9 -15 0.1z"/>
  <path d="M307.2 608.8 c0.5 -1.5 5.8 -2.4 5.8 -1 0 1.1 -2.4 2.2 -4.7 2.2 -0.8 0 -1.3 -0.6 -1.1 -1.2z"/>
  <path d="M707.8 602.4 c-4.7 -1.4 -6.5 -3.4 -3 -3.4 3.1 0 10.6 2.7 11 3.8 0.5 1.6 -2.2 1.4 -8 -0.4z"/>
  <path d="M729 602.7 c0 -1.7 4.2 -2.8 6.2 -1.6 1.7 1 0.8 1.7 -3 2.5 -2.5 0.5 -3.2 0.3 -3.2 -0.9z"/>
  <path d="M737.2 600.8 c0.5 -1.5 5.8 -2.4 5.8 -1 0 0.5 -1 1.2 -2.2 1.6 -3.4 0.9 -4 0.7 -3.6 -0.6z"/>
  <path d="M667.6 565.4 c-1 -3.1 -1.5 -5.8 -1.3 -6 0.3 -0.3 1.3 2 2.2 5.1 1 3 1.6 5.8 1.3 6 -0.2 0.3 -1.2 -2 -2.2 -5.1z"/>
  <path d="M664.7 554.7 c-0.5 -2.1 -1 -4.6 -1.3 -5.5 -0.3 -0.9 0.2 -0.4 1.1 1.1 0.9 1.5 1.5 4 1.3 5.5 -0.3 2.4 -0.4 2.3 -1.1 -1.1z"/>
  <path d="M225.5 536 c-0.4 -1.2 -0.5 -2.4 -0.2 -2.7 0.3 -0.2 0.8 0.5 1.2 1.7 0.4 1.2 0.5 2.4 0.2 2.7 -0.3 0.2 -0.8 -0.5 -1.2 -1.7z"/>
  <path d="M221.1 524 c-4.6 -12.2 -21.4 -64 -20.9 -64.6 0.6 -0.5 4.6 10.6 5.5 14.9 0.8 3.9 1.8 3.4 2.9 -1.5 1.1 -5.1 3.8 -5.9 4.2 -1.3 1.4 17 8.2 32 20 44.8 5.4 5.7 4.2 6.2 -1.9 0.9 -6.2 -5.5 -8.2 -6.4 -10.4 -4.9 -1.6 1.2 -1.5 1.9 1.4 10.2 1.7 4.8 3 9 2.7 9.2 -0.2 0.2 -1.8 -3.2 -3.5 -7.7z"/>
  <path d="M660.4 504.1 c0.3 -1.8 0.6 -4.3 0.6 -5.5 0 -1.5 0.3 -1.7 0.9 -0.7 0.9 1.3 -0.2 7.7 -1.5 8.9 -0.4 0.4 -0.4 -0.8 0 -2.7z"/>
  <path d="M332 485 c-0.8 -0.5 -1.2 -1.2 -0.9 -1.5 0.8 -0.8 3.9 0.5 3.9 1.6 0 1.1 -1.1 1.1 -3 -0.1z"/>
  <path d="M326.3 482.8 c-2.4 -1.1 -3.1 -2.8 -1.2 -2.8 1.7 0 4.9 2 4.9 3 0 1.2 -0.9 1.2 -3.7 -0.2z"/>
  <path d="M319.3 479.6 c-2.6 -1.2 -3 -2.6 -0.9 -2.6 1.3 0 4.3 2.8 3.5 3.3 -0.2 0.2 -1.4 -0.2 -2.6 -0.7z"/>
  <path d="M579.3 467.3 c-1.8 -0.7 -1.6 -2.3 0.2 -2.3 0.8 0 1.5 0.7 1.5 1.5 0 0.8 -0.1 1.5 -0.2 1.4 -0.2 0 -0.9 -0.3 -1.5 -0.6z"/>
  <path d="M209.4 459.4 c0.3 -2.6 0.6 -6 0.6 -7.5 0 -2.1 0.5 -2.9 1.8 -2.9 1.4 0 1.5 -0.2 0.2 -1 -1.3 -0.8 -1.3 -1 0.1 -1 1.3 0 1.5 0.9 1.2 5.3 -0.7 9.4 -1.3 11.7 -3 11.7 -1.3 0 -1.5 -0.8 -0.9 -4.6z"/>
  <path d="M580.3 463.3 c-1.9 -0.7 -1.6 -2.3 0.5 -2.4 1 0 1.2 -0.3 0.5 -0.6 -1.8 -0.7 -1.6 -3.3 0.2 -3.3 0.8 0 1.5 0.8 1.4 1.8 -0.1 2.8 -1.3 4.9 -2.6 4.5z"/>
  <path d="M410 457 c-30.5 -0.5 -37.2 -0.9 -40.5 -2.3 -3.8 -1.5 -1.9 -1.6 37.8 -1.7 l41.7 0 0 2.5 c0 1.4 -0.5 2.4 -1.2 2.3 -0.7 -0.1 -17.7 -0.5 -37.8 -0.8z"/>
  <path d="M696 452.5 c0 -1.6 15.6 -7.3 16.7 -6.1 0.8 0.8 -5.4 3.6 -8.4 3.8 -1.5 0.1 -3.2 0.5 -3.8 0.8 -1.5 1 -4.5 2 -4.5 1.5z"/>
  <path d="M747.2 448 c-1.8 -0.4 -3.6 -1.1 -4 -1.5 -0.9 -0.9 5.8 0.4 7.8 1.6 1.8 1 0.7 1 -3.8 -0.1z"/>
  <path d="M318 441 c-1.7 -0.6 0 -0.8 5.5 -0.9 5.5 0 7.5 0.2 6.5 0.9 -1.8 1.1 -8.4 1.1 -12 0z"/>
  <path d="M252.3 391.2 c-0.8 -0.5 0.6 -1.7 4.2 -3.5 3.1 -1.5 6 -2.7 6.5 -2.7 2.3 0 0.7 1.8 -3.7 4 -2.7 1.4 -5 2.6 -5.3 2.7 -0.3 0.2 -1.1 -0.1 -1.7 -0.5z"/>
  <path d="M289 377 c0 -0.5 0.7 -1 1.5 -1 0.8 0 1.5 0.5 1.5 1 0 0.6 -0.7 1 -1.5 1 -0.8 0 -1.5 -0.4 -1.5 -1z"/>
  <path d="M293 376 c0 -0.5 0.7 -1 1.5 -1 0.8 0 1.5 0.5 1.5 1 0 0.6 -0.7 1 -1.5 1 -0.8 0 -1.5 -0.4 -1.5 -1z"/>
  <path d="M300 375.1 c0 -0.5 0.7 -1.1 1.5 -1.5 0.9 -0.3 1.5 0 1.5 0.9 0 0.8 -0.7 1.5 -1.5 1.5 -0.8 0 -1.5 -0.4 -1.5 -0.9z"/>
  <path d="M721.5 374.7 c-6 -0.5 -50.5 -0.6 -98.8 -0.4 l-87.8 0.4 -1 -2.4 c-0.5 -1.4 -0.8 -18.6 -0.8 -39.1 0.1 -21.6 0.5 -34.4 0.9 -31.2 0.5 3 0.8 20.1 0.9 37.9 l0.1 32.3 2.3 -0.8 c3.5 -1.3 173.4 -1.6 185.2 -0.3 5.5 0.6 10.2 1.3 10.3 1.4 0.2 0.2 0.2 0.9 0 1.7 -0.2 1 -2.5 1.1 -11.3 0.5z"/>
  <path d="M736 373.9 c0 -2.4 2.3 -2.1 2.8 0.4 0.2 1 -0.3 1.7 -1.2 1.7 -1 0 -1.6 -0.9 -1.6 -2.1z"/>
  <path d="M304.3 373.7 c0.2 -0.6 2.1 -1.5 4.3 -1.9 5.4 -1 19.4 -0.8 19.4 0.3 0 1.2 -3 1.7 -14.3 2.3 -7.5 0.4 -9.8 0.3 -9.4 -0.7z"/>
  <path d="M360 373.1 c0 -0.5 0.7 -1.2 1.6 -1.5 2.2 -0.8 64.5 -0.9 66.7 0 5.1 1.9 -1.3 2.4 -33.3 2.4 -19.9 0 -35 -0.4 -35 -0.9z"/>
  <path d="M347 372 c0 -0.5 1.8 -1 4 -1 2.2 0 4 0.5 4 1 0 0.6 -1.8 1 -4 1 -2.2 0 -4 -0.4 -4 -1z"/>
  <path d="M734 368 c0 -0.6 -1 -1.4 -2.2 -1.9 -1.8 -0.7 -2.3 -1.7 -2.4 -4.7 -0.1 -2.2 -0.3 -4.8 -0.5 -5.9 -0.7 -3.6 2.3 -2.2 3.7 1.8 0.7 2.1 0.9 3.7 0.3 3.7 -0.5 0 -0.9 0.5 -0.9 1 0 0.6 0.7 1 1.5 1 0.9 0 2 1.2 2.5 2.6 1.3 3.3 1.3 3.4 -0.5 3.4 -0.8 0 -1.5 -0.5 -1.5 -1z"/>
  <path d="M209.5 354 c2.1 -2.2 4.1 -4 4.4 -4 0.3 0 -1.3 1.8 -3.4 4 -2.1 2.2 -4.1 4 -4.4 4 -0.3 0 1.3 -1.8 3.4 -4z"/>
  <path d="M219.5 344.2 c2.7 -2.9 5.1 -5.2 5.3 -5.2 0.8 0 -3.8 5.1 -6.9 7.6 -2.3 1.9 -1.8 1.1 1.6 -2.4z"/>
  <path d="M249.5 315 c2.1 -2.2 4.1 -4 4.4 -4 0.3 0 -1.3 1.8 -3.4 4 -2.1 2.2 -4.1 4 -4.4 4 -0.3 0 1.3 -1.8 3.4 -4z"/>
  <path d="M484.1 191.6 c0.2 -0.2 1.8 -0.6 3.4 -1 2.2 -0.5 2.6 -0.4 1.5 0.4 -1.4 0.9 -5.9 1.5 -4.9 0.6z"/>
  <path d="M543 179.5 c4.1 -0.7 8.4 -1.4 9.5 -1.4 1.8 0 1.8 0.1 0.3 0.9 -0.9 0.6 -5.2 1.2 -9.5 1.5 l-7.8 0.4 7.5 -1.4z"/>
  <path d="M561.1 177.1 c4.1 -1.3 62.3 -6.1 73.8 -6.1 5.3 0.1 6.2 0.3 4.7 1.2 -1.1 0.6 -8.5 1.2 -17.7 1.4 -8.7 0.1 -16.3 0.5 -16.8 0.8 -0.5 0.4 -4.3 0.9 -8.3 1.2 -4 0.2 -8.4 0.7 -9.8 1 -4.5 0.9 -28.6 1.4 -25.9 0.5z"/>
 </g>
</svg>